<?xml version="1.0" encoding="UTF-8"?>
<svg version="1.1" xmlns="http://www.w3.org/2000/svg" width="189" height="256">
<path d="M0 0 C1.16902863 -0.0071553 2.33805725 -0.01431061 3.54251099 -0.02168274 C4.82152283 -0.02437164 6.10053467 -0.02706055 7.41830444 -0.02983093 C8.78196382 -0.03609911 10.14562151 -0.04274623 11.50927734 -0.04974365 C15.98463764 -0.07074898 20.45999814 -0.08114456 24.93539429 -0.09111023 C26.47924187 -0.09515948 28.02308927 -0.09927645 29.56693649 -0.10346031 C36.82313 -0.12250634 44.07931338 -0.1367371 51.33552706 -0.14507228 C59.69512153 -0.15483482 68.05445053 -0.18113092 76.41395152 -0.22157317 C82.8854747 -0.25180051 89.35692208 -0.26654751 95.82851446 -0.26985329 C99.68875063 -0.27219675 103.54870301 -0.28106436 107.40886307 -0.30631447 C111.04512159 -0.32971582 114.6809119 -0.33378062 118.31722641 -0.32355309 C120.27385235 -0.32282719 122.23045515 -0.34183442 124.1869812 -0.36161804 C133.19711069 -0.30886302 140.01398091 1.28164639 147.52133179 6.33467102 C155.45279081 14.44639048 158.58025934 22.55721668 158.54548645 33.81814575 C158.55072313 34.66644996 158.55595981 35.51475417 158.56135517 36.38876456 C158.5763016 39.21819382 158.57705914 42.04744139 158.57772827 44.87690735 C158.5853533 46.91095279 158.59378139 48.94499536 158.60295105 50.97903442 C158.62486765 56.49564993 158.63369103 62.01221002 158.63877749 67.52886415 C158.6424241 70.97784406 158.64866572 74.42680952 158.65577888 77.87578392 C158.68026251 89.91490185 158.69332315 101.95397674 158.6968689 113.99311829 C158.70050437 125.20453534 158.73040362 136.41567868 158.77227348 147.62701207 C158.80699156 157.26205881 158.82241759 166.89701489 158.82311493 176.53212374 C158.82390715 182.28255554 158.83262114 188.03270833 158.86111259 193.78307533 C158.88731932 199.19309119 158.8894836 204.60259718 158.87345695 210.01264763 C158.87164462 211.99352253 158.87831358 213.97442693 158.89427567 215.95523834 C158.98289893 227.67093931 158.61291303 236.08903374 151.31430054 245.73310852 C144.23285859 252.56110938 137.52527975 256.24604855 127.59408569 256.30107117 C125.85749947 256.31397186 125.85749947 256.31397186 124.08583069 256.32713318 C122.81931168 256.33139313 121.55279266 256.33565308 120.24789429 256.34004211 C118.89733166 256.34794814 117.54677112 256.3562174 116.19621277 256.36482239 C111.76293949 256.39099564 107.32965702 256.40635033 102.89633179 256.42060852 C101.36614985 256.42597108 99.83596797 256.43134859 98.30578613 256.43674088 C91.93536699 256.45836717 85.56495033 256.47709948 79.19450378 256.48836327 C70.08855602 256.50457321 60.9830369 256.53768142 51.87725067 256.59476411 C45.46259829 256.63359332 39.0480599 256.65301151 32.63329315 256.65828383 C28.80868841 256.66192104 24.98454131 256.67376571 21.1600647 256.70638657 C17.55491735 256.73669529 13.95049903 256.74269934 10.34525108 256.73100281 C8.41045121 256.73068053 6.47569478 256.75499621 4.5410614 256.78038025 C-5.98401298 256.70620087 -14.70793543 254.16446841 -22.72866821 247.14717102 C-24.71304321 244.45576477 -24.71304321 244.45576477 -26.47866821 241.58467102 C-27.07163696 240.63463196 -27.66460571 239.6845929 -28.27554321 238.70576477 C-30.88550017 234.11027605 -30.87703373 230.1000079 -30.87583923 224.95721436 C-30.87951592 224.11232785 -30.88319261 223.26744134 -30.88698071 222.39695221 C-30.89802691 219.5551408 -30.90186302 216.71336594 -30.90567017 213.87153625 C-30.91193422 211.83808272 -30.91858097 209.80463033 -30.92558289 207.7711792 C-30.94663635 201.08271585 -30.95698793 194.39425224 -30.96694946 187.70576477 C-30.97099684 185.40319876 -30.97511375 183.10063286 -30.97929955 180.79806709 C-30.99835571 169.97838036 -31.01258465 159.15870046 -31.02091151 148.33900017 C-31.03067954 135.85282823 -31.05698604 123.36683378 -31.09741241 110.88072437 C-31.12758895 101.22878127 -31.14238195 91.57688899 -31.14569253 81.92489964 C-31.14804168 76.16102896 -31.15698446 70.39734779 -31.1821537 64.63352776 C-31.20546549 59.20721557 -31.20965501 53.78121725 -31.19939232 48.35486794 C-31.19889757 46.3675469 -31.2051999 44.38021025 -31.21894836 42.39293671 C-31.30791501 28.76626051 -30.76078295 18.48716135 -20.95132446 8.12763977 C-14.66906042 2.52991065 -8.33501021 0.0350678 0 0 Z " fill="#ECEFED" transform="translate(30.728668212890625,-0.1471710205078125)"/>
<path d="M0 0 C8.33229622 6.08986131 14.57790618 12.8166751 17 23 C18.19104434 36.58621514 16.0799271 46.02875867 7.3671875 56.6484375 C4.79644173 59.20221465 2.14924327 60.86588398 -0.9375 62.75 C-4.61538687 65.21037949 -5.80649925 66.22003003 -6.88671875 70.57421875 C-7.10267949 74.075615 -7.08557843 77.49603873 -7 81 C-8 82 -8 82 -10.13305664 82.11352539 C-11.04949951 82.10828857 -11.96594238 82.10305176 -12.91015625 82.09765625 C-13.89951172 82.09443359 -14.88886719 82.09121094 -15.90820312 82.08789062 C-16.94912109 82.07951172 -17.99003906 82.07113281 -19.0625 82.0625 C-20.10728516 82.05798828 -21.15207031 82.05347656 -22.22851562 82.04882812 C-24.8190666 82.03699913 -27.40950559 82.02051689 -30 82 C-32.89242953 76.21514095 -31.79088387 66.13125449 -30.234375 59.96875 C-27.14884282 53.10235444 -21.74108051 48.66965025 -16 44 C-10.36715597 39.86466155 -10.36715597 39.86466155 -7.7265625 33.79296875 C-7.4726321 27.94746257 -7.4726321 27.94746257 -10.3125 22.9375 C-14.61002724 19.83928269 -18.80912123 19.27386573 -24 20 C-27.75212276 22.01502889 -29.63644095 23.45466142 -32 27 C-32.36141955 29.32914823 -32.69699525 31.66253478 -33 34 C-34 35 -34 35 -36.13305664 35.11352539 C-37.50772095 35.10567017 -37.50772095 35.10567017 -38.91015625 35.09765625 C-39.89951172 35.09443359 -40.88886719 35.09121094 -41.90820312 35.08789062 C-42.94912109 35.07951172 -43.99003906 35.07113281 -45.0625 35.0625 C-46.10728516 35.05798828 -47.15207031 35.05347656 -48.22851562 35.04882812 C-50.8190666 35.03699913 -53.40950559 35.02051689 -56 35 C-56.93699432 24.24191712 -55.0663551 16.43627862 -48.32421875 7.87109375 C-44.44589716 3.74313306 -39.98996607 0.64516648 -35 -2 C-34.40832031 -2.32097656 -33.81664063 -2.64195313 -33.20703125 -2.97265625 C-22.49820311 -7.88182053 -9.95277999 -5.49954894 0 0 Z " fill="#1E1A1C" transform="translate(114,69)"/>
<path d="M0 0 C1.16902863 -0.0071553 2.33805725 -0.01431061 3.54251099 -0.02168274 C4.82152283 -0.02437164 6.10053467 -0.02706055 7.41830444 -0.02983093 C8.78196382 -0.03609911 10.14562151 -0.04274623 11.50927734 -0.04974365 C15.98463764 -0.07074898 20.45999814 -0.08114456 24.93539429 -0.09111023 C26.47924187 -0.09515948 28.02308927 -0.09927645 29.56693649 -0.10346031 C36.82313 -0.12250634 44.07931338 -0.1367371 51.33552706 -0.14507228 C59.69512153 -0.15483482 68.05445053 -0.18113092 76.41395152 -0.22157317 C82.8854747 -0.25180051 89.35692208 -0.26654751 95.82851446 -0.26985329 C99.68875063 -0.27219675 103.54870301 -0.28106436 107.40886307 -0.30631447 C111.04512159 -0.32971582 114.6809119 -0.33378062 118.31722641 -0.32355309 C120.27385235 -0.32282719 122.23045515 -0.34183442 124.1869812 -0.36161804 C133.19711069 -0.30886302 140.01398091 1.28164639 147.52133179 6.33467102 C155.45279081 14.44639048 158.58025934 22.55721668 158.54548645 33.81814575 C158.55072313 34.66644996 158.55595981 35.51475417 158.56135517 36.38876456 C158.5763016 39.21819382 158.57705914 42.04744139 158.57772827 44.87690735 C158.5853533 46.91095279 158.59378139 48.94499536 158.60295105 50.97903442 C158.62486765 56.49564993 158.63369103 62.01221002 158.63877749 67.52886415 C158.6424241 70.97784406 158.64866572 74.42680952 158.65577888 77.87578392 C158.68026251 89.91490185 158.69332315 101.95397674 158.6968689 113.99311829 C158.70050437 125.20453534 158.73040362 136.41567868 158.77227348 147.62701207 C158.80699156 157.26205881 158.82241759 166.89701489 158.82311493 176.53212374 C158.82390715 182.28255554 158.83262114 188.03270833 158.86111259 193.78307533 C158.88731932 199.19309119 158.8894836 204.60259718 158.87345695 210.01264763 C158.87164462 211.99352253 158.87831358 213.97442693 158.89427567 215.95523834 C158.98289893 227.67093931 158.61291303 236.08903374 151.31430054 245.73310852 C144.23285859 252.56110938 137.52527975 256.24604855 127.59408569 256.30107117 C125.85749947 256.31397186 125.85749947 256.31397186 124.08583069 256.32713318 C122.81931168 256.33139313 121.55279266 256.33565308 120.24789429 256.34004211 C118.89733166 256.34794814 117.54677112 256.3562174 116.19621277 256.36482239 C111.76293949 256.39099564 107.32965702 256.40635033 102.89633179 256.42060852 C101.36614985 256.42597108 99.83596797 256.43134859 98.30578613 256.43674088 C91.93536699 256.45836717 85.56495033 256.47709948 79.19450378 256.48836327 C70.08855602 256.50457321 60.9830369 256.53768142 51.87725067 256.59476411 C45.46259829 256.63359332 39.0480599 256.65301151 32.63329315 256.65828383 C28.80868841 256.66192104 24.98454131 256.67376571 21.1600647 256.70638657 C17.55491735 256.73669529 13.95049903 256.74269934 10.34525108 256.73100281 C8.41045121 256.73068053 6.47569478 256.75499621 4.5410614 256.78038025 C-5.98401298 256.70620087 -14.70793543 254.16446841 -22.72866821 247.14717102 C-24.71304321 244.45576477 -24.71304321 244.45576477 -26.47866821 241.58467102 C-27.07163696 240.63463196 -27.66460571 239.6845929 -28.27554321 238.70576477 C-30.88550017 234.11027605 -30.87703373 230.1000079 -30.87583923 224.95721436 C-30.87951592 224.11232785 -30.88319261 223.26744134 -30.88698071 222.39695221 C-30.89802691 219.5551408 -30.90186302 216.71336594 -30.90567017 213.87153625 C-30.91193422 211.83808272 -30.91858097 209.80463033 -30.92558289 207.7711792 C-30.94663635 201.08271585 -30.95698793 194.39425224 -30.96694946 187.70576477 C-30.97099684 185.40319876 -30.97511375 183.10063286 -30.97929955 180.79806709 C-30.99835571 169.97838036 -31.01258465 159.15870046 -31.02091151 148.33900017 C-31.03067954 135.85282823 -31.05698604 123.36683378 -31.09741241 110.88072437 C-31.12758895 101.22878127 -31.14238195 91.57688899 -31.14569253 81.92489964 C-31.14804168 76.16102896 -31.15698446 70.39734779 -31.1821537 64.63352776 C-31.20546549 59.20721557 -31.20965501 53.78121725 -31.19939232 48.35486794 C-31.19889757 46.3675469 -31.2051999 44.38021025 -31.21894836 42.39293671 C-31.30791501 28.76626051 -30.76078295 18.48716135 -20.95132446 8.12763977 C-14.66906042 2.52991065 -8.33501021 0.0350678 0 0 Z M-21.09585571 13.74092102 C-26.28950894 20.50188971 -28.18419133 27.29257183 -28.10961914 35.67938232 C-28.11429911 36.50066166 -28.11897908 37.32194099 -28.12380087 38.16810757 C-28.13569749 40.90014747 -28.12631465 43.63168078 -28.11685181 46.36372375 C-28.12091991 48.33057445 -28.12626313 50.29742287 -28.13278198 52.26426697 C-28.14643382 57.59279721 -28.14116545 62.92115278 -28.13164473 68.249686 C-28.12403604 73.83352543 -28.1310972 79.41735015 -28.13580322 85.00119019 C-28.1412577 94.3784096 -28.13407769 103.75555808 -28.11978149 113.13276672 C-28.10346037 123.9630103 -28.10874087 134.79308439 -28.12526071 145.62332386 C-28.13889001 154.93226838 -28.14078802 164.24116198 -28.1329447 173.55011326 C-28.12827553 179.10535112 -28.12762248 184.66050941 -28.13755417 190.21574211 C-28.14624236 195.44019472 -28.14016799 200.66442961 -28.1228714 205.8888588 C-28.11891626 207.80241218 -28.12002388 209.71598399 -28.12665939 211.62952995 C-28.13490371 214.24925649 -28.12451882 216.86829304 -28.10961914 219.48797607 C-28.11631131 220.23838415 -28.12300347 220.98879223 -28.12989843 221.76193994 C-28.0298165 230.88517315 -24.93882287 238.48616204 -18.72866821 245.14717102 C-10.59069847 252.51811373 -1.9387468 252.44532689 8.59115601 252.43769836 C9.93717824 252.44369018 11.28319706 252.45049722 12.62921143 252.45805359 C16.26979952 252.475653 19.91029348 252.48040635 23.55092001 252.48168516 C25.82933743 252.4831106 28.10773121 252.48738757 30.38614273 252.4926796 C38.34577188 252.5111588 46.30533424 252.51935273 54.26498413 252.51777649 C61.66716608 252.51657519 69.06905641 252.53768049 76.47116458 252.56926382 C82.84168353 252.5954703 89.21210747 252.60614198 95.58267987 252.60486567 C99.38078467 252.60435738 103.17862999 252.60996655 106.97668076 252.63122177 C110.55062173 252.6506787 114.12405765 252.65067851 117.69801712 252.63618851 C119.62258622 252.63312259 121.54715578 252.64972398 123.47164917 252.66706848 C132.44561817 252.60236001 139.71429461 250.95766206 146.58383179 244.89717102 C147.1987146 244.37638977 147.81359741 243.85560852 148.44711304 243.31904602 C153.36345835 237.46575267 154.86491019 231.79567931 154.79272461 224.28001404 C154.8003757 223.4226883 154.8080268 222.56536257 154.81590974 221.68205726 C154.83644066 218.82788917 154.828611 215.97453551 154.82064819 213.12031555 C154.82934839 211.06641398 154.83971668 209.01251891 154.85162354 206.95863342 C154.87836252 201.39242412 154.87956552 195.82648676 154.87449694 190.26022577 C154.87235469 185.60821031 154.88213148 180.95624955 154.89170778 176.30424583 C154.91388401 165.32655282 154.91478089 154.34899668 154.90267944 143.37129211 C154.89059966 132.05810054 154.9152253 120.74540644 154.95781958 109.43229973 C154.99308135 99.70803892 155.00504964 89.98393624 154.9985441 80.25961387 C154.99492274 74.45663603 155.00014697 68.65401307 155.02797318 62.85109329 C155.05316962 57.39253499 155.04920545 51.93475067 155.0231514 46.47620392 C155.01842923 44.47759868 155.02385586 42.47893863 155.04039764 40.48039627 C155.13010662 28.79576355 155.04190983 20.07191291 146.4341526 11.26815987 C139.71443252 4.97006166 132.6366029 3.04027453 123.56790161 3 C122.45502274 2.9928447 121.34214386 2.98568939 120.19554138 2.97831726 C118.3859922 2.97428391 118.3859922 2.97428391 116.53988647 2.97016907 C115.25784836 2.96359787 113.97581024 2.95702667 112.65492249 2.95025635 C108.41769643 2.92931304 104.18047042 2.91886406 99.94320679 2.90888977 C98.47921989 2.90483877 97.01523317 2.90072175 95.55124664 2.89653969 C88.67201898 2.8775105 81.79280189 2.86327394 74.913553 2.85492772 C66.99487607 2.84515931 59.07647896 2.81884079 51.15790057 2.77842683 C45.02179066 2.7481933 38.88576067 2.73345208 32.74957776 2.73014671 C29.09169129 2.72780479 25.43410453 2.71895695 21.77629852 2.69368553 C17.69080693 2.66591249 13.60593544 2.67025794 9.52035522 2.67720032 C7.72295143 2.65798523 7.72295143 2.65798523 5.88923645 2.63838196 C-4.95647867 2.7053749 -13.88034903 5.3297018 -21.09585571 13.74092102 Z " fill="#0C0C0C" transform="translate(30.728668212890625,-0.1471710205078125)"/>
<path d="M0 0 C2.5625 0.1875 2.5625 0.1875 4.5625 2.1875 C4.81583309 4.86596966 4.81583309 4.86596966 4.82078552 8.3412323 C4.82761353 9.6548877 4.83444153 10.96854309 4.84147644 12.32200623 C4.83905676 13.78652981 4.83647246 15.25105313 4.83374023 16.71557617 C4.83812538 18.25129473 4.84342675 19.7870109 4.84957886 21.32272339 C4.86109914 24.63541812 4.86653978 27.94804872 4.86746025 31.26076317 C4.86939781 36.50107538 4.88743514 41.74125478 4.90821838 46.98152161 C4.9574573 60.00237384 4.98826873 73.02326236 5.00952148 86.04418945 C5.02605048 96.15353838 5.04889492 106.2627741 5.09254223 116.37204725 C5.11430554 121.57856692 5.12237755 126.78487148 5.12014949 131.9914335 C5.1218194 135.23678775 5.13588802 138.48200238 5.15336227 141.72730637 C5.15894956 143.22887339 5.15945827 144.73046952 5.15442467 146.2320385 C4.95105703 156.63719739 4.95105703 156.63719739 8.5625 166.1875 C12.23083809 169.58742311 14.6946137 171.30665193 19.66186523 171.33226013 C20.51996796 171.33915863 21.37807068 171.34605713 22.26217651 171.35316467 C23.2056192 171.35577805 24.14906189 171.35839142 25.12109375 171.36108398 C26.60900925 171.3711145 26.60900925 171.3711145 28.12698364 171.38134766 C30.28558106 171.39541917 32.44419355 171.40730649 34.60281372 171.41729546 C38.01448042 171.43366322 41.42603502 171.45689791 44.83764648 171.48219299 C54.53916881 171.55309559 64.24073643 171.61319289 73.94238281 171.66430664 C79.87101896 171.69602396 85.79952592 171.73727872 91.72805786 171.78450203 C93.99274379 171.80056359 96.25745951 171.81286582 98.52218628 171.82140923 C101.68289378 171.83350637 104.84329509 171.8576314 108.00390625 171.88452148 C108.94734894 171.88511063 109.89079163 171.88569977 110.86282349 171.88630676 C112.14997757 171.90088425 112.14997757 171.90088425 113.46313477 171.91575623 C114.21087662 171.91998816 114.95861847 171.9242201 115.72901917 171.92858028 C117.5625 172.1875 117.5625 172.1875 119.5625 174.1875 C119.00694444 178.74305556 119.00694444 178.74305556 117.5625 180.1875 C114.48002562 180.30420035 111.41967479 180.35553963 108.33618164 180.36450195 C106.88239105 180.37435875 106.88239105 180.37435875 105.39923096 180.38441467 C102.17370535 180.40421264 98.94822658 180.41582868 95.72265625 180.42578125 C94.07132092 180.43189454 94.07132092 180.43189454 92.38662529 180.43813133 C86.55259258 180.45902623 80.71858358 180.47330942 74.88452148 180.48266602 C68.86894476 180.49369839 62.85374123 180.52805197 56.83829594 180.56783772 C52.2064294 180.5940507 47.57465078 180.60236235 42.9427166 180.60594749 C40.72646012 180.61080645 38.51020739 180.62240059 36.29402351 180.64098549 C33.18017744 180.6654611 30.06728294 180.66439553 26.95336914 180.6574707 C25.59301796 180.67668579 25.59301796 180.67668579 24.20518494 180.69628906 C17.21097305 180.63995595 10.28345061 179.25532021 4.75396824 174.6964159 C-3.45652977 165.80480927 -4.01240575 156.15690867 -3.9074707 144.5859375 C-3.9079802 143.01974848 -3.91024039 141.45355921 -3.91410828 139.88737488 C-3.91950177 135.65846288 -3.9001905 131.42999323 -3.87600732 127.20116043 C-3.85464609 122.77206068 -3.85530373 118.34296143 -3.85331726 113.91381836 C-3.8468828 106.48625104 -3.82567706 99.05884921 -3.79418945 91.63134766 C-3.75377935 82.08635403 -3.73648251 72.54146773 -3.72688007 62.99639893 C-3.7185941 54.79279428 -3.70136043 46.58921251 -3.68184257 38.38562775 C-3.67577017 35.74518425 -3.67063092 33.10473989 -3.6654911 30.46429443 C-3.65673408 26.32743291 -3.64245067 22.19062507 -3.6237812 18.05379677 C-3.61764113 16.53196107 -3.61320078 15.01011747 -3.61053848 13.48827171 C-3.60657899 11.41994518 -3.59648308 9.35174164 -3.58467102 7.28344727 C-3.58039754 6.12353775 -3.57612406 4.96362823 -3.57172108 3.76856995 C-3.39565131 0.38275011 -3.36380686 0.25875437 0 0 Z " fill="#1E2021" transform="translate(22.4375,55.8125)"/>
<path d="M0 0 C0.9563736 -0.00992981 1.91274719 -0.01985962 2.89810181 -0.03009033 C6.07613983 -0.05939946 9.25397766 -0.07295401 12.43212891 -0.08398438 C14.64254766 -0.09548922 16.85296636 -0.10700467 19.06338501 -0.11853027 C23.70893281 -0.13957395 28.35441121 -0.1512413 33 -0.15820312 C38.92927181 -0.16912744 44.85761446 -0.21707299 50.7865963 -0.27414703 C55.35937075 -0.31156942 59.93192626 -0.32182027 64.50484085 -0.32487488 C66.6887681 -0.33089933 68.87269281 -0.34685928 71.05646896 -0.37324524 C95.12042307 -0.6430464 95.12042307 -0.6430464 104.78573608 8.14196777 C110.01039451 13.55861833 112.15898451 19.75617959 112.15791321 27.18684387 C112.16188761 27.84069854 112.16586202 28.49455321 112.16995686 29.16822165 C112.17951201 31.33934451 112.16780412 33.50980458 112.15600586 35.6809082 C112.15843596 37.24518068 112.1621574 38.80945161 112.16706848 40.37371826 C112.17644738 44.60685763 112.16707949 48.83976459 112.15373635 53.07288575 C112.14240006 57.5042131 112.14653079 61.93552938 112.14848328 66.36686707 C112.1493651 73.8021524 112.13830536 81.23734635 112.11987305 88.67260742 C112.09866821 97.2756751 112.09520445 105.87860933 112.10143501 114.48169786 C112.10712186 122.75719711 112.10149355 131.03264925 112.09026146 139.30814171 C112.08561043 142.83164018 112.08474374 146.3551099 112.08684731 149.87861061 C112.08872582 154.02122113 112.08066026 158.16369504 112.06478691 162.30627441 C112.06053222 163.82930117 112.05970142 165.35234176 112.06247711 166.87537193 C112.06568233 168.94793481 112.05666004 171.02008516 112.04438782 173.09260559 C112.04130851 174.83498363 112.04130851 174.83498363 112.038167 176.61256123 C111.78369141 179.32226562 111.78369141 179.32226562 109.78369141 181.32226562 C105.22813585 180.76671007 105.22813585 180.76671007 103.78369141 179.32226562 C103.68341348 177.28555144 103.65459248 175.24531109 103.65238953 173.20613098 C103.64921596 172.2372722 103.64921596 172.2372722 103.64597827 171.24884051 C103.63995186 169.06862763 103.6409803 166.88847219 103.6418457 164.70825195 C103.63881588 163.15135601 103.63529492 161.59446095 103.63131714 160.03756714 C103.6234129 156.67630221 103.61827745 153.31504798 103.61502647 149.95377541 C103.60912789 144.63823303 103.59259761 139.32275803 103.57368469 134.00724792 C103.56734678 132.18893532 103.56102116 130.37062268 103.55470753 128.55230999 C103.54995881 127.18607795 103.54995881 127.18607795 103.54511416 125.79224527 C103.50301067 113.4122088 103.47007049 101.03220287 103.45776367 88.65209961 C103.44938435 80.30877218 103.42689577 71.9656106 103.38840801 63.62236613 C103.36863764 59.20558793 103.35624586 54.78905772 103.36124229 50.37223244 C103.36588767 46.21478283 103.35208969 42.0578028 103.32423019 37.90044785 C103.31731567 36.37589115 103.31719472 34.85128593 103.32443047 33.32673073 C103.33332534 31.24170274 103.3176181 29.15822112 103.29594421 27.07331848 C103.29355586 25.90762738 103.29116751 24.74193628 103.28870678 23.54092121 C102.50801625 18.56528269 100.00299157 15.4773921 96.40869141 12.07226562 C90.54490306 8.1630734 84.91800359 8.01986212 78.10644531 8.00341797 C77.14971924 7.99337234 76.19299316 7.98332672 75.20727539 7.97297668 C72.0582741 7.94219014 68.90935767 7.92512201 65.76025391 7.90820312 C63.5716377 7.88948785 61.38302868 7.86991417 59.19442749 7.84951782 C53.44387045 7.7982287 47.69329003 7.75858562 41.94262695 7.72137451 C36.07057933 7.68131477 30.19862871 7.63023139 24.32666016 7.58007812 C12.81240542 7.48335689 1.29809587 7.39893984 -10.21630859 7.32226562 C-10.84130859 4.94726562 -10.84130859 4.94726562 -11.21630859 2.32226562 C-8.08153191 -0.81251106 -4.21157637 0.01035817 0 0 Z " fill="#1B1D1E" transform="translate(58.21630859375,19.677734375)"/>
<path d="M0 0 C7.22662214 5.23834515 12.12315453 10.7680818 14.21484375 19.60546875 C15.36901787 28.11750288 13.67895031 34.61676933 8.8125 41.625 C4.52505636 46.93975287 -0.78735506 50.79065748 -6.30859375 54.72265625 C-8.99333636 56.76373817 -9.62363684 57.50075577 -10.1015625 60.76953125 C-10.18277344 61.58164063 -10.26398438 62.39375 -10.34765625 63.23046875 C-10.43144531 64.04773438 -10.51523438 64.865 -10.6015625 65.70703125 C-10.69244141 66.64675781 -10.69244141 66.64675781 -10.78515625 67.60546875 C-13.42515625 67.60546875 -16.06515625 67.60546875 -18.78515625 67.60546875 C-19.40390625 57.94609375 -19.40390625 57.94609375 -17.28515625 53.35546875 C-13.4006736 49.08253784 -9.06063693 45.46316956 -4.59375 41.81640625 C0.36359916 37.67158761 3.78024332 34.544379 4.5234375 27.80859375 C4.79571251 21.17498442 4.45526979 16.79999065 0.21484375 11.60546875 C-6.08593759 6.74993705 -11.82929755 4.7013939 -19.78515625 5.60546875 C-27.37555649 7.88808911 -31.53831572 13.23520795 -35.78515625 19.60546875 C-37.73046875 19.8984375 -37.73046875 19.8984375 -39.91015625 19.79296875 C-41.18890625 19.73109375 -42.46765625 19.66921875 -43.78515625 19.60546875 C-43.4122318 12.14697977 -38.65144427 7.11785943 -33.34765625 2.29296875 C-23.81038899 -5.26680897 -10.64878977 -6.32548744 0 0 Z " fill="#F63934" transform="translate(109.78515625,75.39453125)"/>
<path d="M0 0 C12.62211327 -0.09282862 25.24414484 -0.16383048 37.86653042 -0.20724869 C43.72811917 -0.22809108 49.58947374 -0.25634793 55.45092773 -0.30175781 C61.11139784 -0.34533439 66.77164319 -0.36916228 72.43226814 -0.37950897 C74.58795775 -0.38687911 76.74363556 -0.4012712 78.89922905 -0.42292023 C81.92714549 -0.45211078 84.95414241 -0.45594941 87.98217773 -0.45410156 C88.86619263 -0.46848267 89.75020752 -0.48286377 90.66101074 -0.49768066 C97.64282817 -0.45181149 103.7762547 1.23178393 109.15625 5.8515625 C109.5996875 6.43679687 110.043125 7.02203125 110.5 7.625 C111.19609375 8.51058594 111.19609375 8.51058594 111.90625 9.4140625 C114.35063051 12.95841424 114.0787519 15.74739739 114 20 C111.82676007 17.90437578 109.88654778 15.84995029 108.0625 13.4375 C105.42258853 10.31760462 103.1442153 8.29840994 98.96523094 7.71682167 C96.42091947 7.59036912 93.89196753 7.56359954 91.34448242 7.56762695 C90.3781488 7.5574353 89.41181519 7.54724365 88.41619873 7.53674316 C85.22922984 7.50660272 82.04256148 7.49734545 78.85546875 7.48828125 C76.64300029 7.47143538 74.4305414 7.45328526 72.21809387 7.43388367 C66.40010571 7.3863678 60.58215638 7.35656853 54.76403809 7.33044434 C48.82503593 7.30064696 42.88616757 7.25411376 36.94726562 7.20898438 C25.29824705 7.12293309 13.64920095 7.05559578 2 7 C1.34 4.69 0.68 2.38 0 0 Z " fill="#C6C6C9" transform="translate(48,27)"/>
<path d="M0 0 C4.36687758 2.1437399 7.55717012 4.7720252 10 9 C10.92559986 14.61599914 10.26602907 19.25899006 7 24 C4.35299429 27.12045388 1.85767975 29.5667602 -2.2109375 30.515625 C-7.54306722 30.77040253 -11.9851221 29.59774773 -16 26 C-17.66333858 23.72997257 -18.76737413 21.56006911 -20 19 C-20.33 18.34 -20.66 17.68 -21 17 C-21.42877602 13.22677098 -21.17152877 11.32326576 -19.375 7.9375 C-13.46022084 0.62185209 -9.52367262 -1.5328713 0 0 Z " fill="#1C1A1B" transform="translate(100,161)"/>
<path d="M0 0 C3.50020422 0.3000175 4.94904191 0.95733741 7.6875 3.25 C9.86177411 5.83562327 10.99628672 7.80636682 12 11 C12.99 11 13.98 11 15 11 C14.87625 9.72125 14.7525 8.4425 14.625 7.125 C14.55539063 6.40570313 14.48578125 5.68640625 14.4140625 4.9453125 C14.13625251 2.77331755 14.13625251 2.77331755 12 1 C15.63 1 19.26 1 23 1 C22.34 1.66 21.68 2.32 21 3 C20.69015469 5.09813381 20.69015469 5.09813381 20.734375 7.5 C20.73179687 8.386875 20.72921875 9.27375 20.7265625 10.1875 C20.73429687 11.115625 20.74203125 12.04375 20.75 13 C20.74226563 13.928125 20.73453125 14.85625 20.7265625 15.8125 C20.73042969 17.1428125 20.73042969 17.1428125 20.734375 18.5 C20.73663086 19.3146875 20.73888672 20.129375 20.74121094 20.96875 C20.81825707 23.22630451 20.81825707 23.22630451 23 25 C20.39521117 25.0809313 17.79293347 25.14045434 15.1875 25.1875 C14.08051758 25.22520508 14.08051758 25.22520508 12.95117188 25.26367188 C7.52040272 25.33739272 7.52040272 25.33739272 5.01171875 23.7109375 C3.29664983 20.81055067 3.64417956 18.26168734 4 15 C4.99 14.34 5.98 13.68 7 13 C5.94035767 9.72474189 4.60721355 7.38618531 2.375 4.8125 C0 2 0 2 0 0 Z " fill="#141414" transform="translate(152,210)"/>
<path d="M0 0 C2.22855574 -0.0814222 4.45797655 -0.13938079 6.6875 -0.1875 C8.54955078 -0.23970703 8.54955078 -0.23970703 10.44921875 -0.29296875 C14.23839326 0.01966941 16.09169893 0.57732519 19 3 C19.51619772 6.25204565 19.76413067 7.93731498 19 11 C16.875 13.5 16.875 13.5 14 15 C10.6875 15.25 10.6875 15.25 8 15 C8.32960216 20.01535052 8.32960216 20.01535052 11 24 C7.37 24 3.74 24 0 24 C0.66 23.34 1.32 22.68 2 22 C2.30984531 19.90186619 2.30984531 19.90186619 2.265625 17.5 C2.26820312 16.613125 2.27078125 15.72625 2.2734375 14.8125 C2.26570313 13.884375 2.25796875 12.95625 2.25 12 C2.26160156 10.6078125 2.26160156 10.6078125 2.2734375 9.1875 C2.27085938 8.300625 2.26828125 7.41375 2.265625 6.5 C2.26336914 5.6853125 2.26111328 4.870625 2.25878906 4.03125 C2.18174293 1.77369549 2.18174293 1.77369549 0 0 Z " fill="#232323" transform="translate(17,21)"/>
<path d="M0 0 C2 1 2 1 3 3 C3.45450593 5.76155504 3.49981696 8.24238921 3 11 C1.21908768 13.37454976 -0.04780266 13.84864469 -2.94140625 14.30859375 C-6.23168022 14.50855515 -8.39623851 14.49055621 -11 12.375 C-12.29618989 9.296549 -12.48288863 7.31123632 -12 4 C-8.87063045 -0.95483512 -5.3663324 -0.59625916 0 0 Z " fill="#F63833" transform="translate(99,168)"/>
<path d="M0 0 C3.125 0.375 3.125 0.375 5.5625 2 C7.125 4.375 7.125 4.375 7.0625 7.5 C6.125 10.375 6.125 10.375 3.125 12.375 C0.125 12.75 0.125 12.75 -2.875 12.375 C-4.8125 10.75 -4.8125 10.75 -5.875 8.375 C-5.58844949 3.59915821 -5.19565949 0.67769472 0 0 Z " fill="#141516" transform="translate(142.875,194.625)"/>
<path d="M0 0 C3.63 0 7.26 0 11 0 C10.34 0.66 9.68 1.32 9 2 C8.69015469 4.09813381 8.69015469 4.09813381 8.734375 6.5 C8.73179687 7.386875 8.72921875 8.27375 8.7265625 9.1875 C8.73429688 10.115625 8.74203125 11.04375 8.75 12 C8.74226562 12.928125 8.73453125 13.85625 8.7265625 14.8125 C8.72914063 15.699375 8.73171875 16.58625 8.734375 17.5 C8.73663086 18.3146875 8.73888672 19.129375 8.74121094 19.96875 C8.81825707 22.22630451 8.81825707 22.22630451 11 24 C8.03 24 5.06 24 2 24 C2.33 23.34 2.66 22.68 3 22 C3.42676161 15.47305776 3.30851188 8.41911489 2 2 C1.34 1.34 0.68 0.68 0 0 Z " fill="#111111" transform="translate(164,211)"/>
<path d="M0 0 C1.65 0 3.3 0 5 0 C4.98428955 0.59014893 4.9685791 1.18029785 4.95239258 1.78833008 C4.89002061 4.46295586 4.85100343 7.13742864 4.8125 9.8125 C4.78736328 10.74126953 4.76222656 11.67003906 4.73632812 12.62695312 C4.72666016 13.51962891 4.71699219 14.41230469 4.70703125 15.33203125 C4.6913208 16.15421143 4.67561035 16.9763916 4.65942383 17.82348633 C4.84969041 20.43897981 4.84969041 20.43897981 8 23 C4.37 23 0.74 23 -3 23 C-2.34 22.34 -1.68 21.68 -1 21 C-0.62995706 18.77341846 -0.62995706 18.77341846 -0.5859375 16.2109375 C-0.54726563 15.26992188 -0.50859375 14.32890625 -0.46875 13.359375 C-0.4378125 12.37453125 -0.406875 11.3896875 -0.375 10.375 C-0.33632813 9.38242187 -0.29765625 8.38984375 -0.2578125 7.3671875 C-0.1633686 4.91164615 -0.07780125 2.4561159 0 0 Z " fill="#171717" transform="translate(20,22)"/>
<path d="M0 0 C2.375 1.6875 2.375 1.6875 4 4 C3.92939767 6.89469562 3.38702969 8.43880695 1.75 10.8125 C-0.69201462 12.46958135 -2.11165835 12.50545979 -5 12 C-7.2855347 9.87208838 -7.92303658 8.52591672 -8.375 5.4375 C-8 3 -8 3 -6.8125 1.1875 C-4.31014509 -0.4519739 -2.93962197 -0.50188668 0 0 Z " fill="#131414" transform="translate(48,54)"/>
<path d="M0 0 C0 3.3 0 6.6 0 10 C-2.3125 10.6875 -2.3125 10.6875 -5 11 C-6.8125 9.875 -6.8125 9.875 -8 8 C-8.4334014 5.11065736 -8.42525784 3.64907776 -6.8125 1.1875 C-5 0 -5 0 0 0 Z " fill="#D1D3D1" transform="translate(168,223)"/>
<path d="M0 0 C1.65 0 3.3 0 5 0 C7 2 7 2 7.3125 4.9375 C7 8 7 8 5.75 9.875 C4 11 4 11 0 11 C0 7.37 0 3.74 0 0 Z " fill="#E3E6E4" transform="translate(25,23)"/>
<path d="M0 0 C2 2 2 2 2.125 5.625 C2.08375 6.73875 2.0425 7.8525 2 9 C0 7.1875 0 7.1875 -2 5 C-2 4.01 -2 3.02 -2 2 C-1.34 2 -0.68 2 0 2 C0 1.34 0 0.68 0 0 Z " fill="#B1B6BD" transform="translate(160,38)"/>
<path d="M0 0 C0.66 0.33 1.32 0.66 2 1 C0.88121617 2.17262904 -0.24523051 3.33795138 -1.375 4.5 C-2.00148438 5.1496875 -2.62796875 5.799375 -3.2734375 6.46875 C-5 8 -5 8 -7 8 C-5.50902342 4.2047869 -3.24299151 2.38957269 0 0 Z " fill="#3F1111" transform="translate(107,126)"/>
</svg>
